<svg width="72" height="72" viewBox="0 0 72 72" fill="none" xmlns="http://www.w3.org/2000/svg">
<path d="M41.58 37.26C42.12 37.26 42.6 37.065 43.02 36.675C43.44 36.285 43.71 35.79 43.83 35.19C44.01 34.23 44.34 33.39 44.82 32.67C45.3 31.95 46.14 31.02 47.34 29.88C48.96 28.32 50.085 26.955 50.715 25.785C51.345 24.615 51.66 23.25 51.66 21.69C51.66 18.93 50.715 16.68 48.825 14.94C46.935 13.2 44.46 12.33 41.4 12.33C39.48 12.33 37.71 12.765 36.09 13.635C34.47 14.505 33.18 15.75 32.22 17.37C31.92 17.85 31.89 18.375 32.13 18.945C32.37 19.515 32.79 19.95 33.39 20.25C33.87 20.49 34.41 20.505 35.01 20.295C35.61 20.085 36.09 19.71 36.45 19.17C37.11 18.27 37.845 17.595 38.655 17.145C39.465 16.695 40.38 16.47 41.4 16.47C43.2 16.47 44.655 16.98 45.765 18C46.875 19.02 47.43 20.31 47.43 21.87C47.43 23.07 47.16 24.12 46.62 25.02C46.08 25.92 45.12 26.88 43.74 27.9C42.18 29.34 41.115 30.525 40.545 31.455C39.975 32.385 39.63 33.63 39.51 35.19C39.45 35.79 39.63 36.285 40.05 36.675C40.47 37.065 40.98 37.26 41.58 37.26V37.26ZM41.67 48.6C42.69 48.6 43.56 48.24 44.28 47.52C45 46.8 45.36 45.93 45.36 44.91C45.36 43.89 45 43.02 44.28 42.3C43.56 41.58 42.69 41.22 41.67 41.22C40.65 41.22 39.78 41.58 39.06 42.3C38.34 43.02 37.98 43.89 37.98 44.91C37.98 45.93 38.34 46.8 39.06 47.52C39.78 48.24 40.65 48.6 41.67 48.6ZM16.2 61.2C14.76 61.2 13.5 60.66 12.42 59.58C11.34 58.5 10.8 57.24 10.8 55.8V5.4C10.8 3.96 11.34 2.7 12.42 1.62C13.5 0.54 14.76 0 16.2 0H66.6C68.04 0 69.3 0.54 70.38 1.62C71.46 2.7 72 3.96 72 5.4V55.8C72 57.24 71.46 58.5 70.38 59.58C69.3 60.66 68.04 61.2 66.6 61.2H16.2ZM16.2 55.8H66.6V5.4H16.2V55.8ZM5.4 72C3.96 72 2.7 71.46 1.62 70.38C0.54 69.3 0 68.04 0 66.6V13.5C0 12.72 0.255 12.075 0.765 11.565C1.275 11.055 1.92 10.8 2.7 10.8C3.48 10.8 4.125 11.055 4.635 11.565C5.145 12.075 5.4 12.72 5.4 13.5V66.6H58.5C59.28 66.6 59.925 66.855 60.435 67.365C60.945 67.875 61.2 68.52 61.2 69.3C61.2 70.08 60.945 70.725 60.435 71.235C59.925 71.745 59.28 72 58.5 72H5.4ZM16.2 5.4V55.8V5.4Z" fill="#F4CF7B"/>
</svg>
