<svg width="53" height="52" viewBox="0 0 53 52" fill="none" xmlns="http://www.w3.org/2000/svg">
<path d="M26.4998 25.4175C22.879 25.4175 19.9165 24.2654 17.6123 21.9612C15.3082 19.6571 14.1561 16.6946 14.1561 13.0737C14.1561 9.4529 15.3082 6.4904 17.6123 4.18623C19.9165 1.88206 22.879 0.72998 26.4998 0.72998C30.1207 0.72998 33.0832 1.88206 35.3873 4.18623C37.6915 6.4904 38.8436 9.4529 38.8436 13.0737C38.8436 16.6946 37.6915 19.6571 35.3873 21.9612C33.0832 24.2654 30.1207 25.4175 26.4998 25.4175V25.4175ZM47.8957 51.8331H5.104C3.73248 51.8331 2.56668 51.3531 1.60661 50.393C0.646539 49.4329 0.166504 48.2671 0.166504 46.8956V44.0977C0.166504 42.013 0.687684 40.23 1.73005 38.7487C2.77241 37.2675 4.1165 36.1428 5.76234 35.3748C9.43803 33.7289 12.9629 32.4946 16.3368 31.6716C19.7108 30.8487 23.0984 30.4373 26.4998 30.4373C29.9012 30.4373 33.2752 30.8624 36.6217 31.7128C39.9682 32.5631 43.4794 33.7838 47.155 35.3748C48.8557 36.1428 50.2273 37.2675 51.2696 38.7487C52.312 40.23 52.8332 42.013 52.8332 44.0977V46.8956C52.8332 48.2671 52.3531 49.4329 51.3931 50.393C50.433 51.3531 49.2672 51.8331 47.8957 51.8331ZM5.104 46.8956H47.8957V44.0977C47.8957 43.2199 47.6351 42.3833 47.1139 41.5878C46.5927 40.7923 45.9481 40.2025 45.18 39.8185C41.6689 38.1178 38.4596 36.952 35.5519 36.3211C32.6443 35.6902 29.6269 35.3748 26.4998 35.3748C23.3728 35.3748 20.328 35.6902 17.3655 36.3211C14.403 36.952 11.1936 38.1178 7.73734 39.8185C6.96928 40.2025 6.33838 40.7923 5.84463 41.5878C5.35088 42.3833 5.104 43.2199 5.104 44.0977V46.8956ZM26.4998 20.48C28.6394 20.48 30.4087 19.7805 31.8077 18.3815C33.2066 16.9826 33.9061 15.2133 33.9061 13.0737C33.9061 10.9341 33.2066 9.16488 31.8077 7.76592C30.4087 6.36696 28.6394 5.66748 26.4998 5.66748C24.3603 5.66748 22.591 6.36696 21.192 7.76592C19.7931 9.16488 19.0936 10.9341 19.0936 13.0737C19.0936 15.2133 19.7931 16.9826 21.192 18.3815C22.591 19.7805 24.3603 20.48 26.4998 20.48Z" fill="#7EC7C3"/>
</svg>
