<svg width="76" height="60" viewBox="0 0 76 60" fill="none" xmlns="http://www.w3.org/2000/svg">
<path d="M8.5625 51.5625V5.625C8.5625 4.125 9.125 2.8125 10.25 1.6875C11.375 0.562499 12.6875 0 14.1875 0H69.5C70.3125 0 70.9844 0.265625 71.5156 0.796875C72.0469 1.32813 72.3125 2 72.3125 2.8125C72.3125 3.625 72.0469 4.29687 71.5156 4.82812C70.9844 5.35937 70.3125 5.625 69.5 5.625H14.1875V51.5625H31.9062C33.0937 51.5625 34.0938 51.9688 34.9063 52.7813C35.7188 53.5938 36.125 54.5938 36.125 55.7812C36.125 56.9687 35.7188 57.9687 34.9063 58.7812C34.0938 59.5937 33.0937 60 31.9062 60H4.71875C3.53125 60 2.53125 59.5937 1.71875 58.7812C0.90625 57.9687 0.5 56.9687 0.5 55.7812C0.5 54.5938 0.90625 53.5938 1.71875 52.7813C2.53125 51.9688 3.53125 51.5625 4.71875 51.5625H8.5625ZM45.4063 60C44.4063 60 43.5469 59.625 42.8281 58.875C42.1094 58.125 41.75 57.125 41.75 55.875V14.9062C41.75 13.9062 42.1094 13.0469 42.8281 12.3281C43.5469 11.6094 44.4063 11.25 45.4063 11.25H70.9062C72.1562 11.25 73.2344 11.6094 74.1406 12.3281C75.0469 13.0469 75.5 13.9062 75.5 14.9062V55.875C75.5 57.125 75.0469 58.125 74.1406 58.875C73.2344 59.625 72.1562 60 70.9062 60H45.4063ZM47.375 51.5625H69.875V16.875H47.375V51.5625Z" fill="#D48BF9"/>
</svg>
