<svg width="40" height="40" viewBox="0 0 40 40" fill="none" xmlns="http://www.w3.org/2000/svg">
<path d="M20 40C17.2333 40 14.6333 39.475 12.2 38.425C9.76667 37.375 7.65 35.95 5.85 34.15C4.05 32.35 2.625 30.2333 1.575 27.8C0.525 25.3667 0 22.7667 0 20C0 17.2333 0.525 14.6333 1.575 12.2C2.625 9.76667 4.05 7.65 5.85 5.85C7.65 4.05 9.76667 2.625 12.2 1.575C14.6333 0.525 17.2333 0 20 0C22.7667 0 25.3667 0.525 27.8 1.575C30.2333 2.625 32.35 4.05 34.15 5.85C35.95 7.65 37.375 9.76667 38.425 12.2C39.475 14.6333 40 17.2333 40 20C40 22.7667 39.475 25.3667 38.425 27.8C37.375 30.2333 35.95 32.35 34.15 34.15C32.35 35.95 30.2333 37.375 27.8 38.425C25.3667 39.475 22.7667 40 20 40ZM13.95 36L17.1 28.5C15.8333 28.0667 14.7083 27.375 13.725 26.425C12.7417 25.475 12 24.3167 11.5 22.95L4 25.95C5.03333 28.3167 6.4 30.3667 8.1 32.1C9.8 33.8333 11.75 35.1333 13.95 36ZM11.45 17.1C11.9833 15.7333 12.7333 14.5667 13.7 13.6C14.6667 12.6333 15.7833 11.9333 17.05 11.5L14.05 4C11.55 5.03333 9.43333 6.425 7.7 8.175C5.96667 9.925 4.73333 11.9 4 14.1L11.45 17.1ZM20 26C21.6667 26 23.0833 25.4167 24.25 24.25C25.4167 23.0833 26 21.6667 26 20C26 18.3333 25.4167 16.9167 24.25 15.75C23.0833 14.5833 21.6667 14 20 14C18.3333 14 16.9167 14.5833 15.75 15.75C14.5833 16.9167 14 18.3333 14 20C14 21.6667 14.5833 23.0833 15.75 24.25C16.9167 25.4167 18.3333 26 20 26ZM26.05 36C28.35 35.0667 30.35 33.7417 32.05 32.025C33.75 30.3083 35.0667 28.3167 36 26.05L28.5 22.95C28 24.35 27.2583 25.525 26.275 26.475C25.2917 27.425 24.1667 28.1 22.9 28.5L26.05 36ZM28.5 17.05L36 13.95C35.0667 11.6833 33.7417 9.69167 32.025 7.975C30.3083 6.25833 28.3167 4.93333 26.05 4L23 11.5C24.2667 11.9333 25.3667 12.625 26.3 13.575C27.2333 14.525 27.9667 15.6833 28.5 17.05Z" fill="#BE7DE1"/>
</svg>
