<svg width="50" height="62" viewBox="0 0 50 62" fill="none" xmlns="http://www.w3.org/2000/svg">
<path d="M4.6875 62C3.4375 62 2.34375 61.535 1.40625 60.605C0.468749 59.675 0 58.59 0 57.35V4.65C0 3.41 0.468749 2.325 1.40625 1.395C2.34375 0.465 3.4375 0 4.6875 0H30.9375C31.5625 0 32.1745 0.129167 32.7734 0.3875C33.3724 0.645833 33.8802 0.981667 34.2969 1.395L48.5937 15.5775C49.0104 15.9908 49.349 16.4946 49.6094 17.0887C49.8698 17.6829 50 18.29 50 18.91V57.35C50 58.59 49.5312 59.675 48.5937 60.605C47.6562 61.535 46.5625 62 45.3125 62H4.6875ZM30.5469 16.74V4.65H4.6875V57.35H45.3125V19.065H32.8906C32.2135 19.065 31.6536 18.8454 31.2109 18.4062C30.7682 17.9671 30.5469 17.4117 30.5469 16.74Z" fill="#7897EF"/>
<path d="M14.7602 49C15.2687 49 15.6892 48.8381 16.0217 48.5143C16.3542 48.1905 16.5204 47.781 16.5204 47.2857V39C16.5204 38.5048 16.3542 38.0952 16.0217 37.7714C15.6892 37.4476 15.2687 37.2857 14.7602 37.2857C14.2517 37.2857 13.8312 37.4476 13.4987 37.7714C13.1662 38.0952 13 38.5048 13 39V47.2857C13 47.781 13.1662 48.1905 13.4987 48.5143C13.8312 48.8381 14.2517 49 14.7602 49ZM34.2398 49C34.7483 49 35.1688 48.8381 35.5013 48.5143C35.8338 48.1905 36 47.781 36 47.2857V26.7143C36 26.219 35.8338 25.8095 35.5013 25.4857C35.1688 25.1619 34.7483 25 34.2398 25C33.7313 25 33.3108 25.1619 32.9783 25.4857C32.6458 25.8095 32.4796 26.219 32.4796 26.7143V47.2857C32.4796 47.781 32.6458 48.1905 32.9783 48.5143C33.3108 48.8381 33.7313 49 34.2398 49ZM24.5 49C25.0085 49 25.429 48.8381 25.7615 48.5143C26.094 48.1905 26.2602 47.781 26.2602 47.2857V43.9714C26.2602 43.4762 26.094 43.0667 25.7615 42.7429C25.429 42.419 25.0085 42.2571 24.5 42.2571C23.9915 42.2571 23.571 42.419 23.2385 42.7429C22.906 43.0667 22.7398 43.4762 22.7398 43.9714V47.2857C22.7398 47.781 22.906 48.1905 23.2385 48.5143C23.571 48.8381 23.9915 49 24.5 49ZM24.5587 37.2857C25.0281 37.2857 25.429 37.1238 25.7615 36.8C26.094 36.4762 26.2602 36.0667 26.2602 35.5714V35.5143C26.2602 35.0571 26.0842 34.6667 25.7321 34.3429C25.3801 34.019 24.9694 33.8571 24.5 33.8571C23.9915 33.8571 23.571 34.019 23.2385 34.3429C22.906 34.6667 22.7398 35.0762 22.7398 35.5714V35.6286C22.7398 36.0857 22.9158 36.4762 23.2679 36.8C23.6199 37.1238 24.0502 37.2857 24.5587 37.2857Z" fill="#7897EF"/>
</svg>
