<svg width="60" height="60" viewBox="0 0 60 60" fill="none" xmlns="http://www.w3.org/2000/svg">
<path d="M29.7 60C25.6 60 21.75 59.225 18.15 57.675C14.55 56.125 11.4 54 8.7 51.3C6 48.6 3.875 45.45 2.325 41.85C0.775 38.25 0 34.4 0 30.3C0 26.15 0.7875 22.2375 2.3625 18.5625C3.9375 14.8875 6.075 11.675 8.775 8.925C11.475 6.175 14.65 4 18.3 2.4C21.95 0.8 25.85 0 30 0C34.15 0 38.05 0.8 41.7 2.4C45.35 4 48.525 6.175 51.225 8.925C53.925 11.675 56.0625 14.8875 57.6375 18.5625C59.2125 22.2375 60 26.15 60 30.3V53.85C60 55.55 59.4 57 58.2 58.2C57 59.4 55.55 60 53.85 60H29.7ZM29.7 55.125C36.7 55.125 42.7 52.725 47.7 47.925C52.7 43.125 55.2 37.25 55.2 30.3C55.2 23.15 52.7625 17.0625 47.8875 12.0375C43.0125 7.0125 37.05 4.5 30 4.5C22.85 4.5 16.8125 7.0125 11.8875 12.0375C6.9625 17.0625 4.5 23.15 4.5 30.3C4.5 31.75 4.625 33.175 4.875 34.575C5.125 35.975 5.475 37.325 5.925 38.625L16.575 27.975C16.825 27.725 17.075 27.55 17.325 27.45C17.575 27.35 17.825 27.3 18.075 27.3C18.375 27.3 18.65 27.3375 18.9 27.4125C19.15 27.4875 19.4 27.625 19.65 27.825L27.975 34.875L39.525 23.25H36C35.35 23.25 34.8125 23.0375 34.3875 22.6125C33.9625 22.1875 33.75 21.65 33.75 21C33.75 20.35 33.9625 19.8125 34.3875 19.3875C34.8125 18.9625 35.35 18.75 36 18.75H45C45.65 18.75 46.1875 18.9625 46.6125 19.3875C47.0375 19.8125 47.25 20.35 47.25 21V30C47.25 30.65 47.0375 31.1875 46.6125 31.6125C46.1875 32.0375 45.65 32.25 45 32.25C44.35 32.25 43.8125 32.0375 43.3875 31.6125C42.9625 31.1875 42.75 30.65 42.75 30V26.475L29.7 39.525C29.45 39.725 29.2 39.875 28.95 39.975C28.7 40.075 28.45 40.125 28.2 40.125C27.95 40.175 27.6875 40.15 27.4125 40.05C27.1375 39.95 26.875 39.8 26.625 39.6L18.3 32.55L7.95 42.9C10.15 46.6 13.1625 49.5625 16.9875 51.7875C20.8125 54.0125 25.05 55.125 29.7 55.125ZM53.925 56.025C54.525 56.025 55.0375 55.8 55.4625 55.35C55.8875 54.9 56.1 54.35 56.1 53.7C56.1 53.1 55.875 52.5875 55.425 52.1625C54.975 51.7375 54.45 51.525 53.85 51.525C53.25 51.525 52.725 51.7375 52.275 52.1625C51.825 52.5875 51.6 53.125 51.6 53.775C51.6 54.375 51.825 54.9 52.275 55.35C52.725 55.8 53.275 56.025 53.925 56.025Z" fill="#F1968F"/>
</svg>
