<svg width="15" height="16" viewBox="0 0 15 16" fill="none" xmlns="http://www.w3.org/2000/svg">
<path d="M2.48262 13.3607C1.07242 11.9169 0.357422 10.1603 0.357422 8.0656C0.357422 5.9414 1.06252 4.1863 2.48262 2.7706C3.92812 1.32671 5.71482 0.618164 7.84152 0.618164C10.5914 0.618164 13.0297 2.0268 14.1635 4.2708L11.5278 5.8006C10.8748 4.4412 9.51402 3.62 7.81332 3.62C7.23002 3.6056 6.64992 3.7107 6.10882 3.9287C5.56782 4.1467 5.07712 4.4731 4.66712 4.8878C3.84492 5.7329 3.42042 6.7852 3.42042 8.06C3.40552 8.6449 3.50822 9.2269 3.72232 9.7715C3.93642 10.3161 4.25772 10.8123 4.66712 11.2308C5.07652 11.6467 5.56692 11.9743 6.10802 12.1936C6.64912 12.4128 7.22952 12.519 7.81332 12.5057C9.48582 12.5057 10.903 11.6605 11.5842 10.3251L14.2199 11.8295C13.0015 14.096 10.5914 15.5117 7.84152 15.5117C5.71482 15.5117 3.92532 14.8032 2.48262 13.3607Z" fill="#202835"/>
</svg>
