<svg width="27" height="15" viewBox="0 0 27 15" fill="none" xmlns="http://www.w3.org/2000/svg">
<path fill-rule="evenodd" clip-rule="evenodd" d="M13.6725 0.0535144C6.48034 0.0535144 0.640625 6.15011 0.640625 13.6708V13.9174C0.640625 13.9547 0.65548 13.9906 0.681927 14.017C0.708374 14.0434 0.744246 14.0582 0.781647 14.0582H1.97046L17.9243 14.0061C20.4204 14.0061 22.6499 12.3749 23.5031 9.92106C24.2773 7.70104 26.4857 1.35932 26.8876 0.187329C26.8951 0.166027 26.8973 0.143259 26.8941 0.12092C26.8909 0.0985817 26.8824 0.0773448 26.8693 0.0589826C26.8561 0.0406203 26.8388 0.0256746 26.8187 0.0154096C26.7985 0.00514455 26.7762 -0.000133404 26.7537 2.56184e-06L13.6725 0.0535144Z" fill="#4760B2"/>
</svg>
