<svg width="5" height="22" viewBox="0 0 5 22" fill="none" xmlns="http://www.w3.org/2000/svg">
<path d="M1.37387 4.29515C1.01387 3.9261 0.815884 3.43016 0.819884 2.91533C0.824884 2.4005 1.03387 1.90844 1.39987 1.54624C1.76587 1.18405 2.26088 0.981056 2.77588 0.981446C3.29188 0.981826 3.78587 1.18557 4.15187 1.54831C4.33487 1.72821 4.47988 1.9431 4.57788 2.18016C4.67488 2.41723 4.72388 2.6716 4.72188 2.92802C4.71888 3.18444 4.66388 3.43768 4.56088 3.67258C4.45788 3.90748 4.30887 4.11922 4.12187 4.29515C3.94287 4.47663 3.72887 4.62069 3.49287 4.71901C3.25687 4.81733 3.00388 4.86796 2.74788 4.86796C2.49188 4.86796 2.23887 4.81733 2.00387 4.71901C1.76787 4.62069 1.55387 4.47663 1.37387 4.29515ZM1.23288 21.1424V6.98422H4.29388V21.1424H1.23288Z" fill="#202835"/>
</svg>
