<svg width="16" height="21" viewBox="0 0 16 21" fill="none" xmlns="http://www.w3.org/2000/svg">
<path d="M13.235 2.7954C14.624 4.2392 15.305 5.9944 15.305 8.0623C15.305 10.1569 14.624 11.9135 13.235 13.3573C11.8457 14.8012 10.2014 15.5098 8.24535 15.5098C6.09195 15.5098 4.44766 14.7167 3.28416 13.1306V20.8048H0.222656V0.98385H3.28416V3.0236C4.44766 1.40929 6.09195 0.616211 8.24535 0.616211C10.2014 0.616211 11.8457 1.35293 13.235 2.7954ZM7.76446 12.5925C9.03366 12.5925 10.1168 12.1699 10.9671 11.3247C11.8133 10.4457 12.2363 9.3709 12.2363 8.0679C12.2363 6.7649 11.8133 5.6887 10.9671 4.8393C10.121 3.9617 9.03926 3.5363 7.76446 3.5363C6.48966 3.5363 5.41076 3.9589 4.56046 4.8393C3.71436 5.6845 3.29125 6.7607 3.29125 8.0679C3.29125 9.3709 3.71436 10.4457 4.56046 11.3247C5.41076 12.1699 6.48826 12.5939 7.76446 12.5939V12.5925Z" fill="#202835"/>
</svg>
