<svg width="16" height="16" viewBox="0 0 16 16" fill="none" xmlns="http://www.w3.org/2000/svg">
<path d="M12.2998 0.98385H15.3608V15.1421H12.2998V13.1038C11.1378 14.7181 9.49278 15.5112 7.33778 15.5112C5.38178 15.5112 3.73779 14.8068 2.34879 13.3588C0.959785 11.9107 0.279785 10.1301 0.279785 8.0637C0.279785 5.9676 0.959785 4.2125 2.34879 2.7686C3.73779 1.32476 5.38178 0.616211 7.33778 0.616211C9.49278 0.616211 11.1378 1.40926 12.2998 2.9954V0.98385ZM7.82079 12.5939C9.08979 12.5939 10.1738 12.1713 11.0248 11.3261C11.8708 10.4471 12.2938 9.3723 12.2938 8.0693C12.2938 6.7663 11.8708 5.6901 11.0248 4.8407C10.1788 3.9631 9.09679 3.5377 7.82079 3.5377C6.54379 3.5377 5.46778 3.9603 4.61778 4.8407C3.76578 5.6859 3.34279 6.7621 3.34879 8.0693C3.34879 9.3723 3.77178 10.4471 4.61778 11.3261C5.47378 12.1699 6.54379 12.5939 7.82079 12.5939Z" fill="#202835"/>
</svg>
