<svg width="16" height="16" viewBox="0 0 16 16" fill="none" xmlns="http://www.w3.org/2000/svg">
<path d="M12.851 0.98385H15.913V15.1421H12.851V13.1038C11.689 14.7181 10.045 15.5112 7.89003 15.5112C5.93403 15.5112 4.29003 14.8068 2.90103 13.3588C1.51203 11.9107 0.832031 10.1301 0.832031 8.0637C0.832031 5.9676 1.51203 4.2125 2.90103 2.7686C4.29003 1.32476 5.93403 0.616211 7.89003 0.616211C10.045 0.616211 11.689 1.40926 12.851 2.9954V0.98385ZM8.37203 12.5939C9.64903 12.5939 10.726 12.1713 11.577 11.3261C12.423 10.4471 12.846 9.3723 12.846 8.0693C12.846 6.7663 12.423 5.6901 11.577 4.8407C10.73 3.9631 9.64903 3.5377 8.37203 3.5377C7.09603 3.5377 6.02003 3.9603 5.17003 4.8407C4.31803 5.6859 3.89303 6.7621 3.89403 8.0693C3.89403 9.3723 4.31703 10.4471 5.17003 11.3261C6.02003 12.1699 7.09103 12.5939 8.37203 12.5939Z" fill="#202835"/>
</svg>
