<svg width="21" height="15" viewBox="0 0 21 15" fill="none" xmlns="http://www.w3.org/2000/svg">
<path fill-rule="evenodd" clip-rule="evenodd" d="M0.141022 0.944824C0.103621 0.944824 0.0677532 0.959724 0.0413064 0.986124C0.0148597 1.01252 0 1.04832 0 1.08572V1.49282C0 9.04032 5.796 15.0002 12.9444 15.0002H15.4306C15.4745 15.0004 15.5174 14.9869 15.5532 14.9617C15.5891 14.9364 15.6162 14.9007 15.6309 14.8594L20.3382 1.31952C20.3528 1.27712 20.357 1.23183 20.3506 1.18743C20.3441 1.14313 20.3272 1.10092 20.3011 1.06442C20.275 1.02792 20.2406 0.998125 20.2007 0.977625C20.1608 0.957025 20.1165 0.946324 20.0717 0.946224L0.141022 0.944824Z" fill="#7898EF"/>
</svg>
