<svg width="22" height="16" viewBox="0 0 22 16" fill="none" xmlns="http://www.w3.org/2000/svg">
<path d="M21.2193 6.3649V15.1421H18.1578V6.5621C18.1578 4.6083 17.11 3.4758 15.4092 3.4758C13.5097 3.4758 12.318 4.7224 12.318 7.2143V15.1421H9.25647V6.5621C9.25647 4.6083 8.29326 3.4758 6.59256 3.4758C4.74936 3.4758 3.44637 4.7506 3.44637 7.2143V15.1421H0.384766V0.98385H3.44637V2.6827C4.35307 1.29657 5.71396 0.616211 7.49926 0.616211C9.31426 0.616211 10.6469 1.35291 11.5255 2.8531C12.4605 1.35291 13.9059 0.616211 15.8619 0.616211C19.0659 0.616211 21.2193 2.8531 21.2193 6.3649Z" fill="#202835"/>
</svg>
