<svg width="16" height="16" viewBox="0 0 16 16" fill="none" xmlns="http://www.w3.org/2000/svg">
<path d="M2.28316 13.3607C0.837661 11.9168 0.101562 10.1602 0.101562 8.0656C0.101562 5.971 0.837661 4.2144 2.28316 2.7706C3.72856 1.32671 5.51536 0.618164 7.58416 0.618164C9.68256 0.618164 11.4397 1.32249 12.8866 2.7706C14.3335 4.2186 15.0682 5.9696 15.0682 8.0656C15.0682 10.1617 14.3321 11.9168 12.8866 13.3607C11.4411 14.8045 9.68256 15.5131 7.58416 15.5131C5.51536 15.5117 3.73286 14.8031 2.28316 13.3607ZM7.58416 12.5394C8.16766 12.5538 8.74786 12.4488 9.28926 12.2307C9.83056 12.0127 10.3215 11.6863 10.7318 11.2717C11.5779 10.4265 12.001 9.3461 12.001 8.0727C12.001 6.7992 11.5779 5.7216 10.7318 4.8722C9.88826 4.0555 8.75966 3.5987 7.58486 3.5987C6.41006 3.5987 5.28146 4.0555 4.43796 4.8722C3.59186 5.7174 3.16876 6.7978 3.16876 8.0727C3.16876 9.3475 3.59186 10.4223 4.43796 11.2717C4.84816 11.686 5.33886 12.012 5.87996 12.2298C6.42106 12.4476 7.00096 12.5525 7.58416 12.538V12.5394Z" fill="#202835"/>
</svg>
